<svg width="51" height="54" viewBox="0 0 51 54" fill="none" xmlns="http://www.w3.org/2000/svg">
<path d="M24.24 54H0.96V0.399999H24.24C40.32 0.399999 50.56 10.8 50.56 27.2C50.56 43.6 40.32 54 24.24 54ZM24.24 5.6H6.72V48.8H24.24C37.84 48.8 44.56 41.76 44.56 27.2C44.56 12.64 37.84 5.6 24.24 5.6Z" fill="url(#paint0_linear_134_19)"/>
<path d="M0.96 54H-0.0399998V55H0.96V54ZM0.96 0.399999V-0.600001H-0.0399998V0.399999H0.96ZM6.72 5.6V4.6H5.72V5.6H6.72ZM6.72 48.8H5.72V49.8H6.72V48.8ZM24.24 53H0.96V55H24.24V53ZM1.96 54V0.399999H-0.0399998V54H1.96ZM0.96 1.4H24.24V-0.600001H0.96V1.4ZM24.24 1.4C32.0597 1.4 38.3659 3.92393 42.7168 8.35094C47.0694 12.7798 49.56 19.2101 49.56 27.2H51.56C51.56 18.7899 48.9306 11.8202 44.1432 6.94905C39.3541 2.07607 32.5003 -0.600001 24.24 -0.600001V1.4ZM49.56 27.2C49.56 35.1899 47.0694 41.6202 42.7168 46.0491C38.3659 50.4761 32.0597 53 24.24 53V55C32.5003 55 39.3541 52.3239 44.1432 47.4509C48.9306 42.5798 51.56 35.6101 51.56 27.2H49.56ZM24.24 4.6H6.72V6.6H24.24V4.6ZM5.72 5.6V48.8H7.72V5.6H5.72ZM6.72 49.8H24.24V47.8H6.72V49.8ZM24.24 49.8C31.2033 49.8 36.5931 47.9955 40.2271 44.1465C43.8505 40.3087 45.56 34.6148 45.56 27.2H43.56C43.56 34.3452 41.9095 39.4513 38.7729 42.7735C35.6469 46.0845 30.8767 47.8 24.24 47.8V49.8ZM45.56 27.2C45.56 19.7852 43.8505 14.0913 40.2271 10.2535C36.5931 6.40448 31.2033 4.6 24.24 4.6V6.6C30.8767 6.6 35.6469 8.31552 38.7729 11.6265C41.9095 14.9487 43.56 20.0548 43.56 27.2H45.56Z" fill="url(#paint1_linear_134_19)"/>
<defs>
<linearGradient id="paint0_linear_134_19" x1="-3.75833" y1="-21" x2="75.3847" y2="0.818541" gradientUnits="userSpaceOnUse">
<stop offset="0.213542" stop-color="#314641"/>
<stop offset="0.5" stop-color="#FF5C00" stop-opacity="0.85"/>
<stop offset="0.760417" stop-color="#715C83"/>
</linearGradient>
<linearGradient id="paint1_linear_134_19" x1="-4" y1="28" x2="54" y2="28" gradientUnits="userSpaceOnUse">
<stop stop-color="#203732"/>
<stop offset="0.197917" stop-color="#715C83"/>
<stop offset="0.364583" stop-color="#FF5C00" stop-opacity="0.8"/>
<stop offset="0.645833" stop-color="#FF5C00" stop-opacity="0.8"/>
<stop offset="0.828125" stop-color="#715C83"/>
<stop offset="1" stop-color="#314641"/>
</linearGradient>
</defs>
</svg>
