<svg width="194" height="98" viewBox="0 0 194 98" fill="none" xmlns="http://www.w3.org/2000/svg">
<path d="M28.24 75H4.96V21.4H28.24C44.32 21.4 54.56 31.8 54.56 48.2C54.56 64.6 44.32 75 28.24 75ZM28.24 26.6H10.72V69.8H28.24C41.84 69.8 48.56 62.76 48.56 48.2C48.56 33.64 41.84 26.6 28.24 26.6Z" fill="url(#paint0_linear_134_23)"/>
<path d="M76.22 40.7C72.8 40.7 70.4 39.24 70.4 35.46C70.4 32.18 72.78 30.22 76.14 30.22C79.62 30.22 81.84 31.96 81.84 35.2C81.84 35.54 81.82 35.8 81.78 36.16H73.88C73.94 37.38 74.48 37.72 76.08 37.72C77.6 37.72 78 37.46 78 36.86V36.64H81.76V36.88C81.76 39.12 79.62 40.7 76.22 40.7ZM76.06 33.1C74.68 33.1 74.1 33.4 73.94 34.26H78.2C78.06 33.4 77.46 33.1 76.06 33.1ZM91.2661 40.5H86.6261L82.1461 30.42H86.3461L88.8661 36.84H89.1261L91.6661 30.42H95.7861L91.2661 40.5ZM101.904 40.7C98.4836 40.7 96.0836 39.24 96.0836 35.46C96.0836 32.18 98.4636 30.22 101.824 30.22C105.304 30.22 107.524 31.96 107.524 35.2C107.524 35.54 107.504 35.8 107.464 36.16H99.5636C99.6236 37.38 100.164 37.72 101.764 37.72C103.284 37.72 103.684 37.46 103.684 36.86V36.64H107.444V36.88C107.444 39.12 105.304 40.7 101.904 40.7ZM101.744 33.1C100.364 33.1 99.7836 33.4 99.6236 34.26H103.884C103.744 33.4 103.144 33.1 101.744 33.1ZM112.29 40.5H108.53V27.1H112.29V40.5ZM119.071 40.7C115.571 40.7 113.191 38.72 113.191 35.46C113.191 32.18 115.571 30.22 119.071 30.22C122.571 30.22 124.951 32.18 124.951 35.46C124.951 38.72 122.571 40.7 119.071 40.7ZM119.071 37.38C120.771 37.38 121.231 36.92 121.231 35.46C121.231 34 120.771 33.52 119.071 33.52C117.371 33.52 116.911 34 116.911 35.46C116.911 36.92 117.371 37.38 119.071 37.38ZM129.614 43.9H125.854V30.42H129.374V33.14H129.574C129.894 31.14 131.094 30.22 133.454 30.22C136.534 30.22 138.234 32.2 138.234 35.46C138.234 38.74 136.574 40.7 133.614 40.7C131.234 40.7 130.114 39.58 129.814 37.9H129.614V43.9ZM129.614 35.58C129.614 37 130.414 37.28 132.094 37.28C133.834 37.28 134.434 36.8 134.434 35.46C134.434 34.12 133.834 33.66 132.094 33.66C130.414 33.66 129.614 33.98 129.614 35.44V35.58ZM144.853 40.7C141.433 40.7 139.033 39.24 139.033 35.46C139.033 32.18 141.413 30.22 144.773 30.22C148.253 30.22 150.473 31.96 150.473 35.2C150.473 35.54 150.453 35.8 150.413 36.16H142.513C142.573 37.38 143.113 37.72 144.713 37.72C146.233 37.72 146.633 37.46 146.633 36.86V36.64H150.393V36.88C150.393 39.12 148.253 40.7 144.853 40.7ZM144.693 33.1C143.313 33.1 142.733 33.4 142.573 34.26H146.833C146.693 33.4 146.093 33.1 144.693 33.1ZM156.059 40.7C152.979 40.7 151.279 38.72 151.279 35.46C151.279 32.18 152.939 30.22 155.899 30.22C158.279 30.22 159.399 31.34 159.699 33.02H159.899V27.1H163.659V40.5H160.139V37.78H159.939C159.619 39.78 158.419 40.7 156.059 40.7ZM155.079 35.46C155.079 36.8 155.679 37.26 157.419 37.26C159.099 37.26 159.899 36.94 159.899 35.48V35.34C159.899 33.92 159.099 33.64 157.419 33.64C155.679 33.64 155.079 34.12 155.079 35.46ZM171.171 40.5H167.651V27.1H171.411V33.02H171.611C171.911 31.34 173.031 30.22 175.411 30.22C178.371 30.22 180.031 32.18 180.031 35.46C180.031 38.72 178.331 40.7 175.251 40.7C172.891 40.7 171.691 39.78 171.371 37.78H171.171V40.5ZM171.411 35.48C171.411 36.94 172.211 37.26 173.891 37.26C175.631 37.26 176.231 36.8 176.231 35.46C176.231 34.12 175.631 33.64 173.891 33.64C172.211 33.64 171.411 33.92 171.411 35.34V35.48ZM183.25 43.9H181.43V40.5H184.35C184.65 40.5 184.89 40.46 185.05 40.38L180.23 30.42H184.51L186.25 34.38L186.97 36.7H187.23L187.89 34.34L189.39 30.42H193.59L188.81 40.9C187.73 43.28 186.19 43.9 183.25 43.9Z" fill="black" fill-opacity="0.75"/>
<path d="M70 43H193.39V44H70V43Z" fill="black" fill-opacity="0.75"/>
<path d="M74.728 69.74C72.4 69.74 70.816 68.636 70.816 66.716C70.816 64.772 72.424 63.932 74.632 63.692L80.272 63.068V62.156C80.272 59.852 79.264 58.94 76.672 58.94C74.128 58.94 72.784 59.852 72.784 61.94V62.036H71.08V61.94C71.08 59.444 73.144 57.404 76.792 57.404C80.392 57.404 81.928 59.468 81.928 62.084V69.5H80.392V66.308H80.272C79.576 68.492 77.488 69.74 74.728 69.74ZM72.52 66.596C72.52 67.796 73.312 68.42 75.112 68.42C77.992 68.42 80.272 67.148 80.272 64.292V64.196L75.16 64.772C73.384 64.94 72.52 65.372 72.52 66.596ZM104.673 69.5H102.969V57.644H104.505V61.364H104.625C105.033 59.348 106.713 57.404 109.665 57.404C113.001 57.404 114.657 59.78 114.657 62.588V69.5H112.953V62.828C112.953 60.38 111.777 58.964 109.065 58.964C106.185 58.964 104.673 60.716 104.673 63.764V69.5ZM137.374 56.132H135.67V53.42H137.374V56.132ZM137.374 69.5H135.67V57.644H137.374V69.5ZM164.12 69.74C160.304 69.74 157.88 67.34 157.88 63.572C157.88 59.972 160.28 57.404 164.096 57.404C167.576 57.404 170.048 59.42 170.048 62.948C170.048 63.38 170 63.74 169.928 64.052H159.488C159.584 66.716 160.952 68.324 164.096 68.324C166.88 68.324 168.176 67.292 168.176 65.564V65.396H169.88V65.564C169.88 68.036 167.432 69.74 164.12 69.74ZM164.072 58.82C161 58.82 159.608 60.404 159.488 62.996H168.44C168.44 62.876 168.44 62.756 168.44 62.636C168.44 60.14 166.856 58.82 164.072 58.82ZM192.252 69.5H190.548V53.42H192.252V69.5Z" fill="url(#paint1_linear_134_23)"/>
<path d="M70 72.5H193.668V73.7H70V72.5Z" fill="url(#paint2_linear_134_23)"/>
<defs>
<linearGradient id="paint0_linear_134_23" x1="0.241667" y1="-3.9518e-07" x2="79.3847" y2="21.8185" gradientUnits="userSpaceOnUse">
<stop offset="0.213542" stop-color="#314641"/>
<stop offset="0.5" stop-color="#FF5C00" stop-opacity="0.85"/>
<stop offset="0.760417" stop-color="#715C83"/>
</linearGradient>
<linearGradient id="paint1_linear_134_23" x1="70.5167" y1="46.5" x2="109.196" y2="120.971" gradientUnits="userSpaceOnUse">
<stop offset="0.213542" stop-color="#314641"/>
<stop offset="0.5" stop-color="#FF5C00" stop-opacity="0.85"/>
<stop offset="0.760417" stop-color="#715C83"/>
</linearGradient>
<linearGradient id="paint2_linear_134_23" x1="70.5167" y1="46.5" x2="109.196" y2="120.971" gradientUnits="userSpaceOnUse">
<stop offset="0.213542" stop-color="#314641"/>
<stop offset="0.5" stop-color="#FF5C00" stop-opacity="0.85"/>
<stop offset="0.760417" stop-color="#715C83"/>
</linearGradient>
</defs>
</svg>
