<svg class="careers-hero-text-primary" xmlns="http://www.w3.org/2000/svg" width="100" height="99" viewBox="0 0 100 99" fill="none">
    <path d="M57.4851 8.7672e-08H42.5122C36.9292 7.61601e-08 31.4009 1.0887 26.2429 3.20394C21.0849 5.31919 16.3982 8.41955 12.4506 12.328C8.50291 16.2364 5.37155 20.8764 3.23527 25.9829C1.09899 31.0895 -0.000360245 36.5626 8.85509e-08 42.0898V56.9129C0.00436322 68.0738 4.48472 78.7763 12.4564 86.6682C20.428 94.5601 31.2386 98.9957 42.5122 99H57.4851C68.7596 98.9964 79.5713 94.5608 87.5436 86.6682C95.516 78.7756 99.9964 68.072 100 56.9102V42.0898C100 36.5624 98.9009 31.089 96.7645 25.9823C94.628 20.8756 91.4964 16.2355 87.5485 12.327C83.6005 8.41855 78.9136 5.31825 73.7552 3.20317C68.5969 1.08808 63.0683 -0.000356669 57.4851 8.7672e-08ZM67.1487 23.4665C68.512 23.466 69.8448 23.8657 70.9786 24.6152C72.1124 25.3646 72.9963 26.4301 73.5184 27.6769C74.0405 28.9237 74.1773 30.2957 73.9117 31.6195C73.6461 32.9433 72.9899 34.1594 72.026 35.114C71.0622 36.0685 69.8341 36.7186 68.4971 36.9821C67.16 37.2457 65.774 37.1107 64.5144 36.5943C63.2549 36.0779 62.1783 35.2034 61.4208 34.0812C60.6633 32.959 60.259 31.6397 60.259 30.29C60.259 28.4808 60.9848 26.7456 62.2768 25.466C63.5688 24.1865 65.3212 23.4672 67.1487 23.4665ZM32.6044 23.4665C33.9677 23.466 35.3005 23.8657 36.4344 24.6152C37.5682 25.3646 38.452 26.4301 38.9741 27.6769C39.4962 28.9237 39.6331 30.2957 39.3674 31.6195C39.1018 32.9433 38.4456 34.1594 37.4818 35.114C36.518 36.0685 35.2899 36.7186 33.9528 36.9821C32.6157 37.2457 31.2298 37.1107 29.9702 36.5943C28.7106 36.0779 27.634 35.2034 26.8765 34.0812C26.1191 32.959 25.7148 31.6397 25.7148 30.29C25.7148 28.4808 26.4405 26.7456 27.7325 25.466C29.0245 24.1865 30.7769 23.4672 32.6044 23.4665ZM51.5914 85.0081C51.4155 85.1068 51.2166 85.1581 51.0144 85.157C50.8122 85.1559 50.6139 85.1024 50.4391 85.0019C50.2642 84.9014 50.1191 84.7572 50.018 84.5839C49.9169 84.4106 49.8634 84.2141 49.8628 84.0139V72.9855C42.8799 72.9846 36.1666 70.3166 31.1213 65.5373C26.076 60.758 23.0877 54.2359 22.7789 47.3296C22.7756 47.1764 22.8035 47.0241 22.8609 46.8817C22.9184 46.7394 23.0042 46.61 23.1133 46.5012C23.2224 46.3924 23.3525 46.3065 23.4959 46.2487C23.6393 46.1908 23.7929 46.1621 23.9478 46.1643H75.8053C75.9572 46.164 76.1077 46.1933 76.2482 46.2506C76.3887 46.3079 76.5163 46.3921 76.6239 46.4983C76.7314 46.6045 76.8168 46.7307 76.875 46.8697C76.9332 47.0086 76.9632 47.1575 76.9632 47.3079C76.9632 69.017 57.5482 81.6561 51.5804 85.0271" fill="#FF5758"/>
</svg>