<svg width="190" height="98" viewBox="0 0 190 98" fill="none" xmlns="http://www.w3.org/2000/svg">
<path d="M28.24 75H4.96V21.4H28.24C44.32 21.4 54.56 31.8 54.56 48.2C54.56 64.6 44.32 75 28.24 75ZM28.24 26.6H10.72V69.8H28.24C41.84 69.8 48.56 62.76 48.56 48.2C48.56 33.64 41.84 26.6 28.24 26.6Z" fill="url(#paint0_linear_134_23)"/>
<path d="M4.96 75H-0.0399998V80H4.96V75ZM4.96 21.4V16.4H-0.0399998V21.4H4.96ZM10.72 26.6V21.6H5.72V26.6H10.72ZM10.72 69.8H5.72V74.8H10.72V69.8ZM28.24 70H4.96V80H28.24V70ZM9.96 75V21.4H-0.0399998V75H9.96ZM4.96 26.4H28.24V16.4H4.96V26.4ZM28.24 26.4C35.1786 26.4 40.3897 28.6196 43.8639 32.1547C47.3471 35.6988 49.56 41.0503 49.56 48.2H59.56C59.56 38.9497 56.653 30.9012 50.9961 25.1453C45.3303 19.3804 37.3814 16.4 28.24 16.4V26.4ZM49.56 48.2C49.56 55.3497 47.3471 60.7012 43.8639 64.2453C40.3897 67.7804 35.1786 70 28.24 70V80C37.3814 80 45.3303 77.0196 50.9961 71.2547C56.653 65.4988 59.56 57.4503 59.56 48.2H49.56ZM28.24 21.6H10.72V31.6H28.24V21.6ZM5.72 26.6V69.8H15.72V26.6H5.72ZM10.72 74.8H28.24V64.8H10.72V74.8ZM28.24 74.8C35.8566 74.8 42.4857 72.8176 47.1356 67.8925C51.7327 63.0235 53.56 56.1539 53.56 48.2H43.56C43.56 54.806 42.0273 58.7365 39.8644 61.0275C37.7543 63.2624 34.2234 64.8 28.24 64.8V74.8ZM53.56 48.2C53.56 40.246 51.7327 33.3765 47.1356 28.5075C42.4857 23.5824 35.8566 21.6 28.24 21.6V31.6C34.2234 31.6 37.7543 33.1376 39.8644 35.3725C42.0273 37.6635 43.56 41.5939 43.56 48.2H53.56Z" fill="black" fill-opacity="0.5"/>
<path d="M70.728 44.74C68.4 44.74 66.816 43.636 66.816 41.716C66.816 39.772 68.424 38.932 70.632 38.692L76.272 38.068V37.156C76.272 34.852 75.264 33.94 72.672 33.94C70.128 33.94 68.784 34.852 68.784 36.94V37.036H67.08V36.94C67.08 34.444 69.144 32.404 72.792 32.404C76.392 32.404 77.928 34.468 77.928 37.084V44.5H76.392V41.308H76.272C75.576 43.492 73.488 44.74 70.728 44.74ZM68.52 41.596C68.52 42.796 69.312 43.42 71.112 43.42C73.992 43.42 76.272 42.148 76.272 39.292V39.196L71.16 39.772C69.384 39.94 68.52 40.372 68.52 41.596ZM100.673 44.5H98.9691V32.644H100.505V36.364H100.625C101.033 34.348 102.713 32.404 105.665 32.404C109.001 32.404 110.657 34.78 110.657 37.588V44.5H108.953V37.828C108.953 35.38 107.777 33.964 105.065 33.964C102.185 33.964 100.673 35.716 100.673 38.764V44.5ZM133.374 31.132H131.67V28.42H133.374V31.132ZM133.374 44.5H131.67V32.644H133.374V44.5ZM160.12 44.74C156.304 44.74 153.88 42.34 153.88 38.572C153.88 34.972 156.28 32.404 160.096 32.404C163.576 32.404 166.048 34.42 166.048 37.948C166.048 38.38 166 38.74 165.928 39.052H155.488C155.584 41.716 156.952 43.324 160.096 43.324C162.88 43.324 164.176 42.292 164.176 40.564V40.396H165.88V40.564C165.88 43.036 163.432 44.74 160.12 44.74ZM160.072 33.82C157 33.82 155.608 35.404 155.488 37.996H164.44C164.44 37.876 164.44 37.756 164.44 37.636C164.44 35.14 162.856 33.82 160.072 33.82ZM188.252 44.5H186.548V28.42H188.252V44.5Z" fill="url(#paint1_linear_134_23)"/>
<path d="M72.22 70.7C68.8 70.7 66.4 69.24 66.4 65.46C66.4 62.18 68.78 60.22 72.14 60.22C75.62 60.22 77.84 61.96 77.84 65.2C77.84 65.54 77.82 65.8 77.78 66.16H69.88C69.94 67.38 70.48 67.72 72.08 67.72C73.6 67.72 74 67.46 74 66.86V66.64H77.76V66.88C77.76 69.12 75.62 70.7 72.22 70.7ZM72.06 63.1C70.68 63.1 70.1 63.4 69.94 64.26H74.2C74.06 63.4 73.46 63.1 72.06 63.1ZM87.2661 70.5H82.6261L78.1461 60.42H82.3461L84.8661 66.84H85.1261L87.6661 60.42H91.7861L87.2661 70.5ZM97.9036 70.7C94.4836 70.7 92.0836 69.24 92.0836 65.46C92.0836 62.18 94.4636 60.22 97.8236 60.22C101.304 60.22 103.524 61.96 103.524 65.2C103.524 65.54 103.504 65.8 103.464 66.16H95.5636C95.6236 67.38 96.1636 67.72 97.7636 67.72C99.2836 67.72 99.6836 67.46 99.6836 66.86V66.64H103.444V66.88C103.444 69.12 101.304 70.7 97.9036 70.7ZM97.7436 63.1C96.3636 63.1 95.7836 63.4 95.6236 64.26H99.8836C99.7436 63.4 99.1436 63.1 97.7436 63.1ZM108.29 70.5H104.53V57.1H108.29V70.5ZM115.071 70.7C111.571 70.7 109.191 68.72 109.191 65.46C109.191 62.18 111.571 60.22 115.071 60.22C118.571 60.22 120.951 62.18 120.951 65.46C120.951 68.72 118.571 70.7 115.071 70.7ZM115.071 67.38C116.771 67.38 117.231 66.92 117.231 65.46C117.231 64 116.771 63.52 115.071 63.52C113.371 63.52 112.911 64 112.911 65.46C112.911 66.92 113.371 67.38 115.071 67.38ZM125.614 73.9H121.854V60.42H125.374V63.14H125.574C125.894 61.14 127.094 60.22 129.454 60.22C132.534 60.22 134.234 62.2 134.234 65.46C134.234 68.74 132.574 70.7 129.614 70.7C127.234 70.7 126.114 69.58 125.814 67.9H125.614V73.9ZM125.614 65.58C125.614 67 126.414 67.28 128.094 67.28C129.834 67.28 130.434 66.8 130.434 65.46C130.434 64.12 129.834 63.66 128.094 63.66C126.414 63.66 125.614 63.98 125.614 65.44V65.58ZM140.853 70.7C137.433 70.7 135.033 69.24 135.033 65.46C135.033 62.18 137.413 60.22 140.773 60.22C144.253 60.22 146.473 61.96 146.473 65.2C146.473 65.54 146.453 65.8 146.413 66.16H138.513C138.573 67.38 139.113 67.72 140.713 67.72C142.233 67.72 142.633 67.46 142.633 66.86V66.64H146.393V66.88C146.393 69.12 144.253 70.7 140.853 70.7ZM140.693 63.1C139.313 63.1 138.733 63.4 138.573 64.26H142.833C142.693 63.4 142.093 63.1 140.693 63.1ZM152.059 70.7C148.979 70.7 147.279 68.72 147.279 65.46C147.279 62.18 148.939 60.22 151.899 60.22C154.279 60.22 155.399 61.34 155.699 63.02H155.899V57.1H159.659V70.5H156.139V67.78H155.939C155.619 69.78 154.419 70.7 152.059 70.7ZM151.079 65.46C151.079 66.8 151.679 67.26 153.419 67.26C155.099 67.26 155.899 66.94 155.899 65.48V65.34C155.899 63.92 155.099 63.64 153.419 63.64C151.679 63.64 151.079 64.12 151.079 65.46ZM167.411 59.5H163.651V57.1H167.411V59.5ZM167.411 70.5H163.651V60.42H167.411V70.5ZM176.152 70.5H173.512C170.992 70.5 169.492 69.28 169.492 66.66V63.5H168.012V60.42H169.492V58.68H173.252V60.42H176.152V63.5H173.252V66.12C173.252 66.92 173.492 67.12 174.352 67.12H176.152V70.5ZM181.889 66.1H178.049C178.049 64.74 177.529 60.04 177.529 58.5V57.1H182.409V58.5C182.409 60.04 181.889 64.76 181.889 66.1ZM182.109 70.5H177.809V66.96H182.109V70.5Z" fill="black" fill-opacity="0.75"/>
<defs>
<linearGradient id="paint0_linear_134_23" x1="0.241667" y1="-3.9518e-07" x2="79.3847" y2="21.8185" gradientUnits="userSpaceOnUse">
<stop offset="0.213542" stop-color="#314641"/>
<stop offset="0.5" stop-color="#FF5C00" stop-opacity="0.85"/>
<stop offset="0.760417" stop-color="#715C83"/>
</linearGradient>
<linearGradient id="paint1_linear_134_23" x1="66.5167" y1="21.5" x2="105.196" y2="95.9709" gradientUnits="userSpaceOnUse">
<stop offset="0.213542" stop-color="#314641"/>
<stop offset="0.5" stop-color="#FF5C00" stop-opacity="0.85"/>
<stop offset="0.760417" stop-color="#715C83"/>
</linearGradient>
</defs>
</svg>
