<svg width="202" height="98" viewBox="0 0 202 98" fill="none" xmlns="http://www.w3.org/2000/svg">
<g filter="url(#filter0_d_134_23)">
<g filter="url(#filter1_df_134_23)">
<path d="M32.24 75H8.96V21.4H32.24C48.32 21.4 58.56 31.8 58.56 48.2C58.56 64.6 48.32 75 32.24 75ZM32.24 26.6H14.72V69.8H32.24C45.84 69.8 52.56 62.76 52.56 48.2C52.56 33.64 45.84 26.6 32.24 26.6Z" fill="#E718EB" shape-rendering="crispEdges"/>
<path d="M8.96 75H3.96V80H8.96V75ZM8.96 21.4V16.4H3.96V21.4H8.96ZM14.72 26.6V21.6H9.72V26.6H14.72ZM14.72 69.8H9.72V74.8H14.72V69.8ZM32.24 70H8.96V80H32.24V70ZM13.96 75V21.4H3.96V75H13.96ZM8.96 26.4H32.24V16.4H8.96V26.4ZM32.24 26.4C39.1786 26.4 44.3897 28.6196 47.8639 32.1547C51.3471 35.6988 53.56 41.0503 53.56 48.2H63.56C63.56 38.9497 60.653 30.9012 54.9961 25.1453C49.3303 19.3804 41.3814 16.4 32.24 16.4V26.4ZM53.56 48.2C53.56 55.3497 51.3471 60.7012 47.8639 64.2453C44.3897 67.7804 39.1786 70 32.24 70V80C41.3814 80 49.3303 77.0196 54.9961 71.2547C60.653 65.4988 63.56 57.4503 63.56 48.2H53.56ZM32.24 21.6H14.72V31.6H32.24V21.6ZM9.72 26.6V69.8H19.72V26.6H9.72ZM14.72 74.8H32.24V64.8H14.72V74.8ZM32.24 74.8C39.8566 74.8 46.4857 72.8176 51.1356 67.8925C55.7327 63.0235 57.56 56.1539 57.56 48.2H47.56C47.56 54.806 46.0273 58.7365 43.8644 61.0275C41.7543 63.2624 38.2234 64.8 32.24 64.8V74.8ZM57.56 48.2C57.56 40.246 55.7327 33.3765 51.1356 28.5075C46.4857 23.5824 39.8566 21.6 32.24 21.6V31.6C38.2234 31.6 41.7543 33.1376 43.8644 35.3725C46.0273 37.6635 47.56 41.5939 47.56 48.2H57.56Z" fill="url(#paint0_linear_134_23)"/>
</g>
<path d="M78.728 44.74C76.4 44.74 74.816 43.636 74.816 41.716C74.816 39.772 76.424 38.932 78.632 38.692L84.272 38.068V37.156C84.272 34.852 83.264 33.94 80.672 33.94C78.128 33.94 76.784 34.852 76.784 36.94V37.036H75.08V36.94C75.08 34.444 77.144 32.404 80.792 32.404C84.392 32.404 85.928 34.468 85.928 37.084V44.5H84.392V41.308H84.272C83.576 43.492 81.488 44.74 78.728 44.74ZM76.52 41.596C76.52 42.796 77.312 43.42 79.112 43.42C81.992 43.42 84.272 42.148 84.272 39.292V39.196L79.16 39.772C77.384 39.94 76.52 40.372 76.52 41.596ZM108.673 44.5H106.969V32.644H108.505V36.364H108.625C109.033 34.348 110.713 32.404 113.665 32.404C117.001 32.404 118.657 34.78 118.657 37.588V44.5H116.953V37.828C116.953 35.38 115.777 33.964 113.065 33.964C110.185 33.964 108.673 35.716 108.673 38.764V44.5ZM141.374 31.132H139.67V28.42H141.374V31.132ZM141.374 44.5H139.67V32.644H141.374V44.5ZM168.12 44.74C164.304 44.74 161.88 42.34 161.88 38.572C161.88 34.972 164.28 32.404 168.096 32.404C171.576 32.404 174.048 34.42 174.048 37.948C174.048 38.38 174 38.74 173.928 39.052H163.488C163.584 41.716 164.952 43.324 168.096 43.324C170.88 43.324 172.176 42.292 172.176 40.564V40.396H173.88V40.564C173.88 43.036 171.432 44.74 168.12 44.74ZM168.072 33.82C165 33.82 163.608 35.404 163.488 37.996H172.44C172.44 37.876 172.44 37.756 172.44 37.636C172.44 35.14 170.856 33.82 168.072 33.82ZM196.252 44.5H194.548V28.42H196.252V44.5Z" fill="black" fill-opacity="0.75"/>
<path d="M80.22 70.7C76.8 70.7 74.4 69.24 74.4 65.46C74.4 62.18 76.78 60.22 80.14 60.22C83.62 60.22 85.84 61.96 85.84 65.2C85.84 65.54 85.82 65.8 85.78 66.16H77.88C77.94 67.38 78.48 67.72 80.08 67.72C81.6 67.72 82 67.46 82 66.86V66.64H85.76V66.88C85.76 69.12 83.62 70.7 80.22 70.7ZM80.06 63.1C78.68 63.1 78.1 63.4 77.94 64.26H82.2C82.06 63.4 81.46 63.1 80.06 63.1ZM95.2661 70.5H90.6261L86.1461 60.42H90.3461L92.8661 66.84H93.1261L95.6661 60.42H99.7861L95.2661 70.5ZM105.904 70.7C102.484 70.7 100.084 69.24 100.084 65.46C100.084 62.18 102.464 60.22 105.824 60.22C109.304 60.22 111.524 61.96 111.524 65.2C111.524 65.54 111.504 65.8 111.464 66.16H103.564C103.624 67.38 104.164 67.72 105.764 67.72C107.284 67.72 107.684 67.46 107.684 66.86V66.64H111.444V66.88C111.444 69.12 109.304 70.7 105.904 70.7ZM105.744 63.1C104.364 63.1 103.784 63.4 103.624 64.26H107.884C107.744 63.4 107.144 63.1 105.744 63.1ZM116.29 70.5H112.53V57.1H116.29V70.5ZM123.071 70.7C119.571 70.7 117.191 68.72 117.191 65.46C117.191 62.18 119.571 60.22 123.071 60.22C126.571 60.22 128.951 62.18 128.951 65.46C128.951 68.72 126.571 70.7 123.071 70.7ZM123.071 67.38C124.771 67.38 125.231 66.92 125.231 65.46C125.231 64 124.771 63.52 123.071 63.52C121.371 63.52 120.911 64 120.911 65.46C120.911 66.92 121.371 67.38 123.071 67.38ZM133.614 73.9H129.854V60.42H133.374V63.14H133.574C133.894 61.14 135.094 60.22 137.454 60.22C140.534 60.22 142.234 62.2 142.234 65.46C142.234 68.74 140.574 70.7 137.614 70.7C135.234 70.7 134.114 69.58 133.814 67.9H133.614V73.9ZM133.614 65.58C133.614 67 134.414 67.28 136.094 67.28C137.834 67.28 138.434 66.8 138.434 65.46C138.434 64.12 137.834 63.66 136.094 63.66C134.414 63.66 133.614 63.98 133.614 65.44V65.58ZM148.853 70.7C145.433 70.7 143.033 69.24 143.033 65.46C143.033 62.18 145.413 60.22 148.773 60.22C152.253 60.22 154.473 61.96 154.473 65.2C154.473 65.54 154.453 65.8 154.413 66.16H146.513C146.573 67.38 147.113 67.72 148.713 67.72C150.233 67.72 150.633 67.46 150.633 66.86V66.64H154.393V66.88C154.393 69.12 152.253 70.7 148.853 70.7ZM148.693 63.1C147.313 63.1 146.733 63.4 146.573 64.26H150.833C150.693 63.4 150.093 63.1 148.693 63.1ZM160.059 70.7C156.979 70.7 155.279 68.72 155.279 65.46C155.279 62.18 156.939 60.22 159.899 60.22C162.279 60.22 163.399 61.34 163.699 63.02H163.899V57.1H167.659V70.5H164.139V67.78H163.939C163.619 69.78 162.419 70.7 160.059 70.7ZM159.079 65.46C159.079 66.8 159.679 67.26 161.419 67.26C163.099 67.26 163.899 66.94 163.899 65.48V65.34C163.899 63.92 163.099 63.64 161.419 63.64C159.679 63.64 159.079 64.12 159.079 65.46ZM175.411 59.5H171.651V57.1H175.411V59.5ZM175.411 70.5H171.651V60.42H175.411V70.5ZM184.152 70.5H181.512C178.992 70.5 177.492 69.28 177.492 66.66V63.5H176.012V60.42H177.492V58.68H181.252V60.42H184.152V63.5H181.252V66.12C181.252 66.92 181.492 67.12 182.352 67.12H184.152V70.5ZM189.889 66.1H186.049C186.049 64.74 185.529 60.04 185.529 58.5V57.1H190.409V58.5C190.409 60.04 189.889 64.76 189.889 66.1ZM190.109 70.5H185.809V66.96H190.109V70.5Z" fill="black" fill-opacity="0.75"/>
</g>
<defs>
<filter id="filter0_d_134_23" x="0" y="0" width="202" height="106" filterUnits="userSpaceOnUse" color-interpolation-filters="sRGB">
<feFlood flood-opacity="0" result="BackgroundImageFix"/>
<feColorMatrix in="SourceAlpha" type="matrix" values="0 0 0 0 0 0 0 0 0 0 0 0 0 0 0 0 0 0 127 0" result="hardAlpha"/>
<feOffset dy="4"/>
<feGaussianBlur stdDeviation="2"/>
<feComposite in2="hardAlpha" operator="out"/>
<feColorMatrix type="matrix" values="0 0 0 0 0 0 0 0 0 0 0 0 0 0 0 0 0 0 0.25 0"/>
<feBlend mode="normal" in2="BackgroundImageFix" result="effect1_dropShadow_134_23"/>
<feBlend mode="normal" in="SourceGraphic" in2="effect1_dropShadow_134_23" result="shape"/>
</filter>
<filter id="filter1_df_134_23" x="0.960007" y="13.4" width="69.6" height="73.6" filterUnits="userSpaceOnUse" color-interpolation-filters="sRGB">
<feFlood flood-opacity="0" result="BackgroundImageFix"/>
<feColorMatrix in="SourceAlpha" type="matrix" values="0 0 0 0 0 0 0 0 0 0 0 0 0 0 0 0 0 0 127 0" result="hardAlpha"/>
<feOffset dx="4" dy="4"/>
<feGaussianBlur stdDeviation="4"/>
<feComposite in2="hardAlpha" operator="out"/>
<feColorMatrix type="matrix" values="0 0 0 0 1 0 0 0 0 0.36 0 0 0 0 0 0 0 0 0.85 0"/>
<feBlend mode="normal" in2="BackgroundImageFix" result="effect1_dropShadow_134_23"/>
<feBlend mode="normal" in="SourceGraphic" in2="effect1_dropShadow_134_23" result="shape"/>
<feGaussianBlur stdDeviation="4" result="effect2_foregroundBlur_134_23"/>
</filter>
<linearGradient id="paint0_linear_134_23" x1="4.24167" y1="-3.9518e-07" x2="83.3847" y2="21.8185" gradientUnits="userSpaceOnUse">
<stop offset="0.213542" stop-color="#314641"/>
<stop offset="0.5" stop-color="#FF5C00" stop-opacity="0.85"/>
<stop offset="0.760417" stop-color="#715C83"/>
</linearGradient>
</defs>
</svg>
